<mxfile host="Electron" modified="2023-05-02T07:23:42.011Z" agent="Mozilla/5.0 (Windows NT 10.0; Win64; x64) AppleWebKit/537.36 (KHTML, like Gecko) draw.io/21.2.1 Chrome/112.0.5615.87 Electron/24.1.2 Safari/537.36" etag="V85t8rKUZazwFADpB18W" version="21.2.1" type="device">
  <diagram name="Page-1" id="MuWw8hlP-7gh3ki9MRSE">
    <mxGraphModel dx="819" dy="488" grid="1" gridSize="10" guides="1" tooltips="1" connect="1" arrows="1" fold="1" page="1" pageScale="1" pageWidth="827" pageHeight="1169" math="0" shadow="0">
      <root>
        <mxCell id="0" />
        <mxCell id="1" parent="0" />
        <mxCell id="n9vFjWYDE5SBtBu7MkNS-1" value="Admin&amp;nbsp;" style="shape=umlActor;verticalLabelPosition=bottom;verticalAlign=top;html=1;points=[[0,0.3333333333333333,0,0,0],[0,1,0,0,0],[0.25,0.1,0,0,0],[0.5,0,0,0,0],[0.5,0.5,0,0,0],[0.55,1,0,0,31],[0.75,0.1,0,0,0],[1,0.3333333333333333,0,0,0],[1,1,0,0,0]];" parent="1" vertex="1">
          <mxGeometry x="31.180000000000014" y="50" width="30" height="60" as="geometry" />
        </mxCell>
        <mxCell id="n9vFjWYDE5SBtBu7MkNS-2" value="" style="rounded=0;orthogonalLoop=1;jettySize=auto;html=1;dashed=1;endArrow=none;endFill=0;exitX=0.55;exitY=1;exitDx=0;exitDy=31;exitPerimeter=0;" parent="1" source="n9vFjWYDE5SBtBu7MkNS-1" edge="1">
          <mxGeometry relative="1" as="geometry">
            <mxPoint x="46" y="120" as="sourcePoint" />
            <mxPoint x="50" y="1130" as="targetPoint" />
          </mxGeometry>
        </mxCell>
        <mxCell id="n9vFjWYDE5SBtBu7MkNS-3" value=":Product" style="shape=umlLifeline;perimeter=lifelinePerimeter;whiteSpace=wrap;html=1;container=1;collapsible=0;recursiveResize=0;outlineConnect=0;rounded=1;shadow=0;comic=0;labelBackgroundColor=none;strokeWidth=1;fontFamily=Verdana;fontSize=13;align=center;" parent="1" vertex="1">
          <mxGeometry x="580" y="50" width="100" height="1078" as="geometry" />
        </mxCell>
        <mxCell id="n9vFjWYDE5SBtBu7MkNS-4" value="" style="html=1;points=[];perimeter=orthogonalPerimeter;rounded=0;shadow=0;comic=0;labelBackgroundColor=none;strokeWidth=1;fontFamily=Verdana;fontSize=12;align=center;" parent="n9vFjWYDE5SBtBu7MkNS-3" vertex="1">
          <mxGeometry x="45" y="250" width="10" height="82" as="geometry" />
        </mxCell>
        <mxCell id="n9vFjWYDE5SBtBu7MkNS-8" value=":User" style="shape=umlLifeline;perimeter=lifelinePerimeter;whiteSpace=wrap;html=1;container=1;collapsible=0;recursiveResize=0;outlineConnect=0;rounded=1;shadow=0;comic=0;labelBackgroundColor=none;strokeWidth=1;fontFamily=Verdana;fontSize=13;align=center;" parent="1" vertex="1">
          <mxGeometry x="130" y="50" width="100" height="1078" as="geometry" />
        </mxCell>
        <mxCell id="n9vFjWYDE5SBtBu7MkNS-9" value="" style="html=1;points=[[0,0,0,0,0]];perimeter=orthogonalPerimeter;rounded=0;shadow=0;comic=0;labelBackgroundColor=none;strokeWidth=1;fontFamily=Verdana;fontSize=12;align=center;" parent="n9vFjWYDE5SBtBu7MkNS-8" vertex="1">
          <mxGeometry x="45" y="150" width="10" height="890" as="geometry" />
        </mxCell>
        <mxCell id="kZ2RcLdzIM8h738nA8hj-5" value="&lt;font style=&quot;font-size: 10px;&quot;&gt;addSales()&lt;/font&gt;" style="html=1;verticalAlign=bottom;endArrow=block;edgeStyle=elbowEdgeStyle;elbow=vertical;curved=0;rounded=0;" parent="n9vFjWYDE5SBtBu7MkNS-8" edge="1">
          <mxGeometry width="80" relative="1" as="geometry">
            <mxPoint x="55" y="200" as="sourcePoint" />
            <mxPoint x="200" y="200" as="targetPoint" />
          </mxGeometry>
        </mxCell>
        <mxCell id="kZ2RcLdzIM8h738nA8hj-20" value="" style="html=1;verticalAlign=bottom;endArrow=open;dashed=1;endSize=8;edgeStyle=elbowEdgeStyle;elbow=vertical;curved=0;rounded=0;" parent="n9vFjWYDE5SBtBu7MkNS-8" edge="1">
          <mxGeometry x="-0.0021" relative="1" as="geometry">
            <mxPoint x="209.5" y="489.3103448275863" as="sourcePoint" />
            <mxPoint x="55" y="489" as="targetPoint" />
            <mxPoint as="offset" />
          </mxGeometry>
        </mxCell>
        <mxCell id="kZ2RcLdzIM8h738nA8hj-30" value="" style="html=1;verticalAlign=bottom;endArrow=open;dashed=1;endSize=8;edgeStyle=elbowEdgeStyle;elbow=vertical;curved=0;rounded=0;" parent="n9vFjWYDE5SBtBu7MkNS-8" source="kZ2RcLdzIM8h738nA8hj-1" edge="1">
          <mxGeometry relative="1" as="geometry">
            <mxPoint x="135" y="670.03" as="sourcePoint" />
            <mxPoint x="55" y="670.03" as="targetPoint" />
          </mxGeometry>
        </mxCell>
        <mxCell id="kZ2RcLdzIM8h738nA8hj-34" value="deleteSales()" style="html=1;verticalAlign=bottom;endArrow=block;edgeStyle=elbowEdgeStyle;elbow=vertical;curved=0;rounded=0;" parent="n9vFjWYDE5SBtBu7MkNS-8" target="kZ2RcLdzIM8h738nA8hj-1" edge="1">
          <mxGeometry width="80" relative="1" as="geometry">
            <mxPoint x="55" y="750" as="sourcePoint" />
            <mxPoint x="135" y="750" as="targetPoint" />
          </mxGeometry>
        </mxCell>
        <mxCell id="kZ2RcLdzIM8h738nA8hj-43" value="getAllSales()" style="html=1;verticalAlign=bottom;endArrow=block;edgeStyle=elbowEdgeStyle;elbow=vertical;curved=0;rounded=0;" parent="n9vFjWYDE5SBtBu7MkNS-8" edge="1">
          <mxGeometry width="80" relative="1" as="geometry">
            <mxPoint x="55" y="909" as="sourcePoint" />
            <mxPoint x="207" y="909" as="targetPoint" />
          </mxGeometry>
        </mxCell>
        <mxCell id="n9vFjWYDE5SBtBu7MkNS-36" value="" style="html=1;verticalAlign=bottom;endArrow=open;dashed=1;endSize=8;edgeStyle=elbowEdgeStyle;elbow=vertical;curved=0;rounded=0;" parent="1" edge="1">
          <mxGeometry relative="1" as="geometry">
            <mxPoint x="180" y="1090" as="sourcePoint" />
            <mxPoint x="50" y="1090" as="targetPoint" />
          </mxGeometry>
        </mxCell>
        <mxCell id="kZ2RcLdzIM8h738nA8hj-1" value=":Sales" style="shape=umlLifeline;perimeter=lifelinePerimeter;whiteSpace=wrap;html=1;container=1;collapsible=0;recursiveResize=0;outlineConnect=0;rounded=1;shadow=0;comic=0;labelBackgroundColor=none;strokeWidth=1;fontFamily=Verdana;fontSize=13;align=center;" parent="1" vertex="1">
          <mxGeometry x="290" y="50" width="100" height="1078" as="geometry" />
        </mxCell>
        <mxCell id="kZ2RcLdzIM8h738nA8hj-2" value="" style="html=1;points=[[0,0,0,0,0]];perimeter=orthogonalPerimeter;rounded=0;shadow=0;comic=0;labelBackgroundColor=none;strokeWidth=1;fontFamily=Verdana;fontSize=12;align=center;" parent="kZ2RcLdzIM8h738nA8hj-1" vertex="1">
          <mxGeometry x="45" y="200" width="10" height="290" as="geometry" />
        </mxCell>
        <mxCell id="kZ2RcLdzIM8h738nA8hj-7" value="&lt;font style=&quot;font-size: 10px;&quot;&gt;addSalesLine(Id)&lt;/font&gt;" style="html=1;verticalAlign=bottom;endArrow=block;elbow=vertical;rounded=0;entryX=0;entryY=0;entryDx=0;entryDy=0;entryPerimeter=0;" parent="kZ2RcLdzIM8h738nA8hj-1" target="kZ2RcLdzIM8h738nA8hj-4" edge="1">
          <mxGeometry width="80" relative="1" as="geometry">
            <mxPoint x="55" y="241" as="sourcePoint" />
            <mxPoint x="214" y="240" as="targetPoint" />
          </mxGeometry>
        </mxCell>
        <mxCell id="kZ2RcLdzIM8h738nA8hj-16" value="&lt;font style=&quot;font-size: 10px;&quot;&gt;return SalesLineId&lt;/font&gt;" style="html=1;verticalAlign=bottom;endArrow=open;dashed=1;endSize=8;edgeStyle=elbowEdgeStyle;elbow=vertical;curved=0;rounded=0;" parent="kZ2RcLdzIM8h738nA8hj-1" edge="1">
          <mxGeometry relative="1" as="geometry">
            <mxPoint x="199.5" y="340.3103448275863" as="sourcePoint" />
            <mxPoint x="55" y="340.03" as="targetPoint" />
          </mxGeometry>
        </mxCell>
        <mxCell id="kZ2RcLdzIM8h738nA8hj-17" value="stbstractStockItem(Id, Qty)" style="html=1;verticalAlign=bottom;endArrow=block;elbow=vertical;rounded=0;" parent="kZ2RcLdzIM8h738nA8hj-1" edge="1">
          <mxGeometry x="0.6728" width="80" relative="1" as="geometry">
            <mxPoint x="56" y="384" as="sourcePoint" />
            <mxPoint x="475" y="387" as="targetPoint" />
            <mxPoint as="offset" />
          </mxGeometry>
        </mxCell>
        <mxCell id="kZ2RcLdzIM8h738nA8hj-22" value="" style="html=1;points=[];perimeter=orthogonalPerimeter;rounded=0;shadow=0;comic=0;labelBackgroundColor=none;strokeWidth=1;fontFamily=Verdana;fontSize=12;align=center;" parent="kZ2RcLdzIM8h738nA8hj-1" vertex="1">
          <mxGeometry x="45" y="537" width="10" height="133" as="geometry" />
        </mxCell>
        <mxCell id="kZ2RcLdzIM8h738nA8hj-35" value="deleteSalesLine(Id)" style="html=1;verticalAlign=bottom;endArrow=block;edgeStyle=elbowEdgeStyle;elbow=vertical;curved=0;rounded=0;" parent="kZ2RcLdzIM8h738nA8hj-1" edge="1">
          <mxGeometry width="80" relative="1" as="geometry">
            <mxPoint x="55" y="760" as="sourcePoint" />
            <mxPoint x="196" y="760" as="targetPoint" />
          </mxGeometry>
        </mxCell>
        <mxCell id="n9vFjWYDE5SBtBu7MkNS-32" value="" style="html=1;points=[];perimeter=orthogonalPerimeter;rounded=0;shadow=0;comic=0;labelBackgroundColor=none;strokeWidth=1;fontFamily=Verdana;fontSize=12;align=center;" parent="kZ2RcLdzIM8h738nA8hj-1" vertex="1">
          <mxGeometry x="45" y="750" width="10" height="90" as="geometry" />
        </mxCell>
        <mxCell id="kZ2RcLdzIM8h738nA8hj-41" value="" style="html=1;verticalAlign=bottom;endArrow=open;dashed=1;endSize=8;edgeStyle=elbowEdgeStyle;elbow=vertical;curved=0;rounded=0;" parent="kZ2RcLdzIM8h738nA8hj-1" edge="1">
          <mxGeometry x="0.4803" relative="1" as="geometry">
            <mxPoint x="199.5" y="823.3103448275863" as="sourcePoint" />
            <mxPoint x="55" y="823" as="targetPoint" />
            <mxPoint as="offset" />
          </mxGeometry>
        </mxCell>
        <mxCell id="n9vFjWYDE5SBtBu7MkNS-28" value="" style="html=1;points=[];perimeter=orthogonalPerimeter;rounded=0;shadow=0;comic=0;labelBackgroundColor=none;strokeWidth=1;fontFamily=Verdana;fontSize=12;align=center;" parent="kZ2RcLdzIM8h738nA8hj-1" vertex="1">
          <mxGeometry x="45" y="907" width="10" height="113" as="geometry" />
        </mxCell>
        <mxCell id="kZ2RcLdzIM8h738nA8hj-45" value="return Id" style="html=1;verticalAlign=bottom;endArrow=open;dashed=1;endSize=8;edgeStyle=elbowEdgeStyle;elbow=vertical;curved=0;rounded=0;" parent="kZ2RcLdzIM8h738nA8hj-1" edge="1">
          <mxGeometry relative="1" as="geometry">
            <mxPoint x="199.5" y="987.3103448275863" as="sourcePoint" />
            <mxPoint x="55" y="987" as="targetPoint" />
          </mxGeometry>
        </mxCell>
        <mxCell id="kZ2RcLdzIM8h738nA8hj-3" value=":SalesLine" style="shape=umlLifeline;perimeter=lifelinePerimeter;whiteSpace=wrap;html=1;container=1;collapsible=0;recursiveResize=0;outlineConnect=0;rounded=1;shadow=0;comic=0;labelBackgroundColor=none;strokeWidth=1;fontFamily=Verdana;fontSize=13;align=center;" parent="1" vertex="1">
          <mxGeometry x="440" y="50" width="100" height="1078" as="geometry" />
        </mxCell>
        <mxCell id="kZ2RcLdzIM8h738nA8hj-4" value="" style="html=1;points=[[0,0,0,0,0]];perimeter=orthogonalPerimeter;rounded=0;shadow=0;comic=0;labelBackgroundColor=none;strokeWidth=1;fontFamily=Verdana;fontSize=12;align=center;" parent="kZ2RcLdzIM8h738nA8hj-3" vertex="1">
          <mxGeometry x="45" y="240" width="10" height="100" as="geometry" />
        </mxCell>
        <mxCell id="kZ2RcLdzIM8h738nA8hj-8" value="&lt;font style=&quot;font-size: 10px;&quot;&gt;getProduct(Id)&lt;/font&gt;" style="html=1;verticalAlign=bottom;endArrow=block;edgeStyle=elbowEdgeStyle;elbow=vertical;curved=0;rounded=0;" parent="kZ2RcLdzIM8h738nA8hj-3" edge="1">
          <mxGeometry width="80" relative="1" as="geometry">
            <mxPoint x="55" y="251" as="sourcePoint" />
            <mxPoint x="190" y="250" as="targetPoint" />
          </mxGeometry>
        </mxCell>
        <mxCell id="kZ2RcLdzIM8h738nA8hj-14" value="return product" style="html=1;verticalAlign=bottom;endArrow=open;dashed=1;endSize=8;edgeStyle=elbowEdgeStyle;elbow=vertical;curved=0;rounded=0;" parent="kZ2RcLdzIM8h738nA8hj-3" edge="1">
          <mxGeometry relative="1" as="geometry">
            <mxPoint x="189.5" y="332" as="sourcePoint" />
            <mxPoint x="55" y="332" as="targetPoint" />
            <Array as="points">
              <mxPoint x="120" y="332" />
              <mxPoint x="90" y="302" />
            </Array>
          </mxGeometry>
        </mxCell>
        <mxCell id="kZ2RcLdzIM8h738nA8hj-25" value="" style="html=1;points=[];perimeter=orthogonalPerimeter;rounded=0;shadow=0;comic=0;labelBackgroundColor=none;strokeWidth=1;fontFamily=Verdana;fontSize=12;align=center;" parent="kZ2RcLdzIM8h738nA8hj-3" vertex="1">
          <mxGeometry x="45" y="570" width="10" height="80" as="geometry" />
        </mxCell>
        <mxCell id="kZ2RcLdzIM8h738nA8hj-31" value="editStock(Id)" style="html=1;verticalAlign=bottom;endArrow=block;edgeStyle=elbowEdgeStyle;elbow=vertical;curved=0;rounded=0;" parent="kZ2RcLdzIM8h738nA8hj-3" target="kZ2RcLdzIM8h738nA8hj-9" edge="1">
          <mxGeometry x="0.4942" width="80" relative="1" as="geometry">
            <mxPoint x="55" y="580" as="sourcePoint" />
            <mxPoint x="135" y="580" as="targetPoint" />
            <mxPoint as="offset" />
          </mxGeometry>
        </mxCell>
        <mxCell id="kZ2RcLdzIM8h738nA8hj-36" value="" style="html=1;points=[];perimeter=orthogonalPerimeter;rounded=0;shadow=0;comic=0;labelBackgroundColor=none;strokeWidth=1;fontFamily=Verdana;fontSize=12;align=center;" parent="kZ2RcLdzIM8h738nA8hj-3" vertex="1">
          <mxGeometry x="45" y="760" width="10" height="63" as="geometry" />
        </mxCell>
        <mxCell id="kZ2RcLdzIM8h738nA8hj-38" value="addStockItem(Id, Qty)" style="html=1;verticalAlign=bottom;endArrow=block;edgeStyle=elbowEdgeStyle;elbow=vertical;curved=0;rounded=0;" parent="kZ2RcLdzIM8h738nA8hj-3" target="kZ2RcLdzIM8h738nA8hj-9" edge="1">
          <mxGeometry x="0.4937" width="80" relative="1" as="geometry">
            <mxPoint x="55" y="770" as="sourcePoint" />
            <mxPoint x="196" y="770" as="targetPoint" />
            <mxPoint as="offset" />
          </mxGeometry>
        </mxCell>
        <mxCell id="kZ2RcLdzIM8h738nA8hj-40" value="return bool" style="html=1;verticalAlign=bottom;endArrow=open;dashed=1;endSize=8;edgeStyle=elbowEdgeStyle;elbow=vertical;curved=0;rounded=0;" parent="kZ2RcLdzIM8h738nA8hj-3" edge="1">
          <mxGeometry x="0.4803" relative="1" as="geometry">
            <mxPoint x="326" y="810" as="sourcePoint" />
            <mxPoint x="55" y="810" as="targetPoint" />
            <mxPoint as="offset" />
          </mxGeometry>
        </mxCell>
        <mxCell id="n9vFjWYDE5SBtBu7MkNS-21" value="" style="html=1;points=[];perimeter=orthogonalPerimeter;rounded=0;shadow=0;comic=0;labelBackgroundColor=none;strokeWidth=1;fontFamily=Verdana;fontSize=12;align=center;" parent="kZ2RcLdzIM8h738nA8hj-3" vertex="1">
          <mxGeometry x="45" y="937" width="10" height="50" as="geometry" />
        </mxCell>
        <mxCell id="kZ2RcLdzIM8h738nA8hj-6" value="&lt;font style=&quot;font-size: 10px;&quot;&gt;SignIn()&lt;/font&gt;" style="html=1;verticalAlign=bottom;endArrow=block;elbow=vertical;rounded=0;fontSize=14;entryX=-0.171;entryY=0.007;entryDx=0;entryDy=0;entryPerimeter=0;" parent="1" target="n9vFjWYDE5SBtBu7MkNS-9" edge="1">
          <mxGeometry x="0.0006" width="80" relative="1" as="geometry">
            <mxPoint x="50" y="205" as="sourcePoint" />
            <mxPoint x="220" y="203" as="targetPoint" />
            <mxPoint as="offset" />
          </mxGeometry>
        </mxCell>
        <mxCell id="kZ2RcLdzIM8h738nA8hj-9" value=":Stock" style="shape=umlLifeline;perimeter=lifelinePerimeter;whiteSpace=wrap;html=1;container=1;collapsible=0;recursiveResize=0;outlineConnect=0;rounded=1;shadow=0;comic=0;labelBackgroundColor=none;strokeWidth=1;fontFamily=Verdana;fontSize=13;align=center;" parent="1" vertex="1">
          <mxGeometry x="720" y="50" width="100" height="1078" as="geometry" />
        </mxCell>
        <mxCell id="kZ2RcLdzIM8h738nA8hj-11" value="" style="html=1;points=[];perimeter=orthogonalPerimeter;rounded=0;shadow=0;comic=0;labelBackgroundColor=none;strokeWidth=1;fontFamily=Verdana;fontSize=12;align=center;" parent="kZ2RcLdzIM8h738nA8hj-9" vertex="1">
          <mxGeometry x="45" y="386" width="10" height="82" as="geometry" />
        </mxCell>
        <mxCell id="kZ2RcLdzIM8h738nA8hj-32" value="" style="html=1;points=[];perimeter=orthogonalPerimeter;rounded=0;shadow=0;comic=0;labelBackgroundColor=none;strokeWidth=1;fontFamily=Verdana;fontSize=12;align=center;" parent="kZ2RcLdzIM8h738nA8hj-9" vertex="1">
          <mxGeometry x="45" y="578" width="10" height="52" as="geometry" />
        </mxCell>
        <mxCell id="kZ2RcLdzIM8h738nA8hj-39" value="" style="html=1;points=[];perimeter=orthogonalPerimeter;rounded=0;shadow=0;comic=0;labelBackgroundColor=none;strokeWidth=1;fontFamily=Verdana;fontSize=12;align=center;" parent="kZ2RcLdzIM8h738nA8hj-9" vertex="1">
          <mxGeometry x="45" y="770" width="10" height="40" as="geometry" />
        </mxCell>
        <mxCell id="kZ2RcLdzIM8h738nA8hj-18" value="" style="html=1;verticalAlign=bottom;endArrow=open;dashed=1;endSize=8;elbow=vertical;rounded=0;" parent="1" edge="1">
          <mxGeometry relative="1" as="geometry">
            <mxPoint x="769.5" y="518" as="sourcePoint" />
            <mxPoint x="345" y="518" as="targetPoint" />
            <Array as="points">
              <mxPoint x="540" y="518" />
              <mxPoint x="500" y="518" />
            </Array>
          </mxGeometry>
        </mxCell>
        <mxCell id="kZ2RcLdzIM8h738nA8hj-19" value="loop" style="shape=umlFrame;whiteSpace=wrap;html=1;pointerEvents=0;" parent="1" vertex="1">
          <mxGeometry x="280" y="260" width="370" height="150" as="geometry" />
        </mxCell>
        <mxCell id="kZ2RcLdzIM8h738nA8hj-24" value="getSalesLine(Id)" style="html=1;verticalAlign=bottom;endArrow=block;edgeStyle=elbowEdgeStyle;elbow=vertical;curved=0;rounded=0;entryX=-0.193;entryY=0.032;entryDx=0;entryDy=0;entryPerimeter=0;" parent="1" edge="1">
          <mxGeometry width="80" relative="1" as="geometry">
            <mxPoint x="345" y="622" as="sourcePoint" />
            <mxPoint x="482.5" y="622.31" as="targetPoint" />
          </mxGeometry>
        </mxCell>
        <mxCell id="kZ2RcLdzIM8h738nA8hj-27" value="loop" style="shape=umlFrame;whiteSpace=wrap;html=1;pointerEvents=0;" parent="1" vertex="1">
          <mxGeometry x="270" y="600" width="250" height="110" as="geometry" />
        </mxCell>
        <mxCell id="kZ2RcLdzIM8h738nA8hj-29" value="" style="html=1;verticalAlign=bottom;endArrow=open;dashed=1;endSize=8;elbow=vertical;rounded=0;exitX=-0.159;exitY=0.821;exitDx=0;exitDy=0;exitPerimeter=0;" parent="1" edge="1">
          <mxGeometry relative="1" as="geometry">
            <mxPoint x="482.40999999999985" y="700" as="sourcePoint" />
            <mxPoint x="344" y="700" as="targetPoint" />
          </mxGeometry>
        </mxCell>
        <mxCell id="kZ2RcLdzIM8h738nA8hj-21" value="editSales(Id)" style="html=1;verticalAlign=bottom;endArrow=block;elbow=vertical;rounded=0;" parent="1" edge="1">
          <mxGeometry width="80" relative="1" as="geometry">
            <mxPoint x="185" y="591" as="sourcePoint" />
            <mxPoint x="334" y="591" as="targetPoint" />
          </mxGeometry>
        </mxCell>
        <mxCell id="kZ2RcLdzIM8h738nA8hj-33" value="return bool" style="html=1;verticalAlign=bottom;endArrow=open;dashed=1;endSize=8;edgeStyle=elbowEdgeStyle;elbow=vertical;curved=0;rounded=0;" parent="1" source="kZ2RcLdzIM8h738nA8hj-9" edge="1">
          <mxGeometry x="0.4803" relative="1" as="geometry">
            <mxPoint x="580" y="680.03" as="sourcePoint" />
            <mxPoint x="500" y="680" as="targetPoint" />
            <mxPoint as="offset" />
          </mxGeometry>
        </mxCell>
        <mxCell id="kZ2RcLdzIM8h738nA8hj-42" value="" style="html=1;verticalAlign=bottom;endArrow=open;dashed=1;endSize=8;edgeStyle=elbowEdgeStyle;elbow=vertical;curved=0;rounded=0;" parent="1" source="kZ2RcLdzIM8h738nA8hj-1" edge="1">
          <mxGeometry x="0.4803" relative="1" as="geometry">
            <mxPoint x="330" y="890.28" as="sourcePoint" />
            <mxPoint x="185" y="890.28" as="targetPoint" />
            <mxPoint as="offset" />
          </mxGeometry>
        </mxCell>
        <mxCell id="kZ2RcLdzIM8h738nA8hj-44" value="getSalesLine(Id)" style="html=1;verticalAlign=bottom;endArrow=block;edgeStyle=elbowEdgeStyle;elbow=vertical;curved=0;rounded=0;exitX=0.979;exitY=0.272;exitDx=0;exitDy=0;exitPerimeter=0;" parent="1" edge="1">
          <mxGeometry width="80" relative="1" as="geometry">
            <mxPoint x="344.78999999999996" y="987.3039999999999" as="sourcePoint" />
            <mxPoint x="484.9999999999998" y="987.2758620689656" as="targetPoint" />
          </mxGeometry>
        </mxCell>
        <mxCell id="kZ2RcLdzIM8h738nA8hj-47" value="loop" style="shape=umlFrame;whiteSpace=wrap;html=1;pointerEvents=0;" parent="1" vertex="1">
          <mxGeometry x="270" y="969" width="250" height="81" as="geometry" />
        </mxCell>
        <mxCell id="kZ2RcLdzIM8h738nA8hj-48" value="" style="html=1;verticalAlign=bottom;endArrow=open;dashed=1;endSize=8;edgeStyle=elbowEdgeStyle;elbow=vertical;curved=0;rounded=0;" parent="1" source="kZ2RcLdzIM8h738nA8hj-1" edge="1">
          <mxGeometry relative="1" as="geometry">
            <mxPoint x="316" y="1070.03" as="sourcePoint" />
            <mxPoint x="186" y="1070.03" as="targetPoint" />
          </mxGeometry>
        </mxCell>
      </root>
    </mxGraphModel>
  </diagram>
</mxfile>
